<svg width="36" height="35" viewBox="0 0 36 35" fill="none" xmlns="http://www.w3.org/2000/svg">
<path d="M34.183 17.5356C34.183 20.6865 33.2486 23.7666 31.4981 26.3864C29.7476 29.0062 27.2595 31.0482 24.3485 32.2539C21.4375 33.4597 18.2343 33.7752 15.144 33.1605C12.0537 32.5458 9.21503 31.0285 6.98704 28.8005C4.75905 26.5725 3.24177 23.7339 2.62707 20.6436C2.01237 17.5533 2.32785 14.3501 3.53363 11.4391C4.73941 8.52807 6.78133 6.03999 9.40117 4.28947C12.021 2.53895 15.1011 1.60461 18.252 1.60461C20.344 1.60461 22.4156 2.01668 24.3485 2.81729C26.2813 3.6179 28.0375 4.79137 29.5169 6.2707C30.9962 7.75003 32.1697 9.50625 32.9703 11.4391C33.7709 13.3719 34.183 15.4435 34.183 17.5356Z" fill="white" stroke="#242993" stroke-width="3" stroke-linecap="round" stroke-linejoin="round"/>
<path d="M18.252 7.97656V17.5356L24.624 20.7216" stroke="#242993" stroke-width="3" stroke-linecap="round" stroke-linejoin="round"/>
</svg>
