<svg width="22" height="22" viewBox="0 0 22 22" fill="none" xmlns="http://www.w3.org/2000/svg">
<g opacity="0.14">
<path d="M19.4099 21.3381C19.1668 21.3394 18.9258 21.2925 18.7008 21.2003C18.4759 21.1082 18.2713 20.9726 18.0989 20.8011L1.0809 3.78308C0.73254 3.43445 0.536922 2.96172 0.53711 2.46887C0.537297 1.97603 0.733282 1.50339 1.08191 1.15503C1.43054 0.806668 1.90327 0.611141 2.39612 0.611328C2.88896 0.611516 3.36154 0.807501 3.7099 1.15613L20.7259 18.165C20.9878 18.4244 21.1665 18.7559 21.2392 19.1172C21.3119 19.4785 21.2753 19.8533 21.1341 20.1937C20.9929 20.5342 20.7535 20.8249 20.4464 21.0287C20.1393 21.2325 19.7785 21.3403 19.4099 21.3381Z" fill="#F49E39"/>
<path d="M2.39591 21.3384C2.02753 21.3401 1.66695 21.232 1.36018 21.0281C1.0534 20.8241 0.814328 20.5335 0.673379 20.1931C0.53243 19.8528 0.496007 19.4781 0.568765 19.1169C0.641524 18.7558 0.820169 18.4245 1.08192 18.1653L18.0999 1.15637C18.4483 0.80801 18.9207 0.612305 19.4134 0.612305C19.9061 0.612305 20.3785 0.80801 20.7269 1.15637C21.0753 1.50473 21.271 1.97719 21.271 2.46985C21.271 2.96251 21.0753 3.43496 20.7269 3.78333L3.71092 20.8014C3.53788 20.9731 3.33264 21.1089 3.10697 21.201C2.88131 21.2932 2.63966 21.3399 2.39591 21.3384Z" fill="#F49E39"/>
</g>
</svg>
