<svg width="94" height="94" viewBox="0 0 94 94" fill="none" xmlns="http://www.w3.org/2000/svg">
<path opacity="0.07" d="M93.0309 47.515C93.1833 39.0944 91.0225 30.7934 86.7839 23.5159C86.7108 23.3698 86.6255 23.2302 86.5289 23.0984C82.5025 16.3097 76.8056 10.6645 69.9806 6.70012C63.1555 2.7357 55.4294 0.584002 47.5376 0.449842C39.6458 0.315682 31.851 2.20352 24.8951 5.93367C17.9392 9.66381 12.0538 15.1121 7.79894 21.76C7.69282 21.8955 7.59896 22.0402 7.5185 22.1924C3.10187 29.236 0.669025 37.3416 0.476845 45.6532C0.284665 53.9648 2.34028 62.1742 6.42664 69.4145C6.41694 69.5143 6.39442 69.604 6.39272 69.704C6.38348 70.2981 6.56054 70.8802 6.89903 71.3685C7.23751 71.8569 7.72041 72.2269 8.27997 72.4268C12.4275 78.6505 18.023 83.775 24.5865 87.3606C31.1501 90.9462 38.4856 92.8857 45.9635 93.0128C53.4415 93.14 60.8386 91.4509 67.5202 88.0905C74.2018 84.7301 79.9683 79.7987 84.3249 73.7196C84.8905 73.5381 85.3852 73.1845 85.7398 72.708C86.0944 72.2316 86.2912 71.6563 86.3027 71.0624C86.3044 70.9624 86.286 70.8691 86.2806 70.775C90.5677 63.7637 92.8986 55.732 93.0309 47.515ZM6.24825 48.8985L19.1693 49.1181C19.2485 55.1921 20.0847 61.2325 21.6584 67.0996L11.5834 66.9284C8.40845 61.4231 6.58033 55.245 6.24825 48.8985ZM11.6551 26.4059L22.0441 26.5825C20.4725 32.0634 19.5407 37.7079 19.2674 43.4032L6.3454 43.1835C6.85735 37.2682 8.67013 31.539 11.6541 26.4059L11.6551 26.4059ZM87.2534 44.5589L74.3334 44.3393C74.2533 38.6381 73.5139 32.9653 72.1301 27.434L82.5181 27.6106C85.3264 32.8415 86.9431 38.6288 87.2524 44.5579L87.2534 44.5589ZM68.6064 44.2419L49.6574 43.9198L49.9441 27.0568L66.0981 27.3314C67.6584 32.8365 68.5012 38.52 68.6054 44.2409L68.6064 44.2419ZM50.0423 21.3388L50.2931 6.58382C55.845 8.09861 60.7366 13.6744 64.0693 21.5763L50.0423 21.3388ZM44.5771 6.48765L44.3263 21.2417L30.2953 21.0031C33.8976 13.2181 38.976 7.81284 44.5761 6.48663L44.5771 6.48765ZM44.2291 26.9597L43.9424 43.8226L24.9934 43.5005C25.2939 37.7858 26.3314 32.1339 28.0801 26.6851L44.2291 26.9597ZM24.8973 49.2155L43.8443 49.5376L43.5394 67.4716L27.7274 67.2028C25.956 61.3669 25.0032 55.3134 24.8963 49.2155L24.8973 49.2155ZM43.4432 73.1876L43.2106 86.8696C37.9166 85.4252 33.2196 80.286 29.9092 72.9576L43.4432 73.1876ZM48.9266 86.9688L49.1592 73.2848L62.6922 73.5149C59.1306 80.7254 54.2656 85.7032 48.9256 86.9688L48.9266 86.9688ZM49.2564 67.5688L49.5613 49.6348L68.5093 49.9569C68.1951 56.0476 67.0371 62.0653 65.0684 67.8376L49.2564 67.5688ZM74.2363 50.0543L87.1562 50.2739C86.6096 56.6056 84.5729 62.7181 81.2124 68.1121L71.1374 67.9408C72.9086 62.1304 73.9493 56.1219 74.2352 50.0543L74.2363 50.0543ZM78.7504 21.8229L70.3503 21.6801C68.886 17.5482 66.821 13.6546 64.222 10.1246C69.903 12.8513 74.8754 16.8567 78.7493 21.8268L78.7504 21.8229ZM30.533 9.55184C27.8155 12.9915 25.6194 16.8127 24.0154 20.8924L15.6154 20.7496C19.6568 15.9169 24.7623 12.0856 30.5319 9.55584L30.533 9.55184ZM15.6353 72.7109L23.5593 72.8456C24.979 76.5837 26.9048 80.1093 29.2828 83.3239C24.0265 80.805 19.3721 77.1872 15.6342 72.7149L15.6353 72.7109ZM62.9708 83.8966C65.4567 80.7647 67.5013 77.3065 69.0473 73.6189L76.9713 73.7536C73.0838 78.0987 68.3091 81.5589 62.9698 83.9006L62.9708 83.8966Z" fill="#242993"/>
</svg>
