<svg width="64" height="30" viewBox="0 0 64 30" fill="none" xmlns="http://www.w3.org/2000/svg">
<path d="M48.9269 13.1652C50.1729 13.1652 51.391 12.7957 52.427 12.1034C53.463 11.4112 54.2705 10.4273 54.7474 9.27609C55.2242 8.12492 55.349 6.8582 55.1059 5.63612C54.8628 4.41404 54.2628 3.29149 53.3817 2.41042C52.5006 1.52934 51.3781 0.929328 50.156 0.686241C48.9339 0.443154 47.6672 0.567915 46.516 1.04475C45.3648 1.52158 44.3809 2.32907 43.6887 3.3651C42.9964 4.40113 42.6269 5.61917 42.6269 6.86519C42.6232 7.69355 42.7836 8.51445 43.0989 9.28047C43.4142 10.0465 43.8781 10.7425 44.4639 11.3282C45.0496 11.914 45.7456 12.3779 46.5116 12.6932C47.2777 13.0085 48.0986 13.1689 48.9269 13.1652ZM32.1369 13.1652C33.3829 13.1652 34.601 12.7957 35.637 12.1034C36.673 11.4112 37.4805 10.4273 37.9574 9.27609C38.4342 8.12492 38.559 6.8582 38.3159 5.63612C38.0728 4.41404 37.4728 3.29149 36.5917 2.41042C35.7106 1.52934 34.5881 0.929328 33.366 0.686241C32.1439 0.443154 30.8772 0.567915 29.726 1.04475C28.5748 1.52158 27.5909 2.32907 26.8987 3.3651C26.2064 4.40113 25.8369 5.61917 25.8369 6.86519C25.8332 7.69355 25.9936 8.51445 26.3089 9.28047C26.6242 10.0465 27.0881 10.7425 27.6739 11.3282C28.2596 11.914 28.9556 12.3779 29.7216 12.6932C30.4877 13.0085 31.3086 13.1689 32.1369 13.1652ZM32.1369 17.3652C27.2459 17.3652 17.4369 19.8212 17.4369 24.7132V29.9612H46.8279V24.7072C46.8279 19.8162 37.0239 17.3602 32.1369 17.3602V17.3652ZM48.9319 17.3652C48.3229 17.3652 47.6319 17.4072 46.8959 17.4652C49.3309 19.2282 51.0319 21.6012 51.0319 24.7082V29.9562H63.6319V24.7072C63.6219 19.8162 53.8189 17.3602 48.9269 17.3602L48.9319 17.3652Z" fill="white"/>
<path d="M15.674 13.1652C14.428 13.1652 13.21 12.7957 12.1739 12.1034C11.1379 11.4112 10.3304 10.4273 9.85358 9.27609C9.37675 8.12492 9.25199 6.8582 9.49508 5.63612C9.73816 4.41404 10.3382 3.29149 11.2193 2.41042C12.1003 1.52934 13.2229 0.929328 14.445 0.686241C15.667 0.443154 16.9338 0.567915 18.0849 1.04475C19.2361 1.52158 20.22 2.32907 20.9123 3.3651C21.6045 4.40113 21.974 5.61917 21.974 6.86519C21.9777 7.69355 21.8173 8.51445 21.502 9.28047C21.1867 10.0465 20.7228 10.7425 20.1371 11.3282C19.5513 11.914 18.8553 12.3779 18.0893 12.6932C17.3233 13.0085 16.5024 13.1689 15.674 13.1652ZM15.674 17.3652C16.283 17.3652 16.974 17.4072 17.71 17.4652C15.275 19.2282 13.574 21.6012 13.574 24.7082V29.9562H0.974033V24.7072C0.978033 19.8162 10.787 17.3602 15.674 17.3602V17.3652Z" fill="white"/>
</svg>
