<svg width="41" height="21" viewBox="0 0 41 21" fill="none" xmlns="http://www.w3.org/2000/svg">
<path d="M28.3217 6.6974H1.36326C1.07914 6.6974 0.80666 6.81225 0.605758 7.01667C0.404857 7.22109 0.291992 7.49835 0.291992 7.78745L0.291992 12.8747C0.291992 13.1638 0.404857 13.441 0.605758 13.6454C0.80666 13.8499 1.07914 13.9647 1.36326 13.9647H28.3217V18.1491C28.3214 18.5806 28.4469 19.0025 28.6823 19.3614C28.9178 19.7203 29.2526 20 29.6444 20.1651C30.0362 20.3303 30.4674 20.3733 30.8833 20.289C31.2992 20.2046 31.6811 19.9965 31.9807 19.6911L39.6645 11.8725C40.0663 11.4637 40.292 10.9092 40.292 10.3311C40.292 9.7529 40.0663 9.19842 39.6645 8.78959L31.9807 0.971058C31.6811 0.665637 31.2992 0.457552 30.8833 0.373157C30.4674 0.288762 30.0362 0.331852 29.6444 0.496971C29.2526 0.662091 28.9178 0.94181 28.6823 1.30071C28.4469 1.6596 28.3214 2.08153 28.3217 2.51305V6.6974Z" fill="#F49E39"/>
</svg>
